<svg width="111" height="111" viewBox="0 0 111 111" fill="none" xmlns="http://www.w3.org/2000/svg">
<path d="M55.4307 111C47.578 111 40.2797 109.589 33.5356 106.768C26.7915 103.947 20.9251 100.039 15.9363 95.0438C10.9476 90.0488 7.04432 84.175 4.22659 77.4225C1.40886 70.67 0 63.3625 0 55.5C0 47.73 1.40886 40.4688 4.22659 33.7162C7.04432 26.9637 10.9476 21.09 15.9363 16.095C20.9251 11.1 26.7915 7.16875 33.5356 4.30125C40.2797 1.43375 47.578 0 55.4307 0C62.3596 0 68.8265 1.11 74.8315 3.33C80.8365 5.55 86.241 8.6025 91.0449 12.4875L85.0861 18.4537C81.0212 15.2162 76.4944 12.7188 71.5056 10.9612C66.5169 9.20375 61.1586 8.325 55.4307 8.325C42.035 8.325 30.8333 12.8344 21.8258 21.8531C12.8184 30.8719 8.31461 42.0875 8.31461 55.5C8.31461 68.9125 12.8184 80.1281 21.8258 89.1469C30.8333 98.1656 42.035 102.675 55.4307 102.675C68.8265 102.675 80.0281 98.1656 89.0356 89.1469C98.0431 80.1281 102.547 68.9125 102.547 55.5C102.547 52.725 102.339 50.0194 101.923 47.3831C101.507 44.7469 100.884 42.18 100.052 39.6825L106.427 33.3C107.905 36.7225 109.014 40.2838 109.753 43.9838C110.492 47.6838 110.861 51.5225 110.861 55.5C110.861 63.3625 109.429 70.67 106.566 77.4225C103.702 84.175 99.7753 90.0488 94.7865 95.0438C89.7978 100.039 83.9313 103.947 77.1873 106.768C70.4432 109.589 63.191 111 55.4307 111ZM47.2547 80.7525L24.3895 57.72L30.6255 51.4762L47.2547 68.1263L104.625 10.6838L111 16.9275L47.2547 80.7525Z" fill="#EF3F3F"/>
</svg>
