<svg width="202" height="202" viewBox="0 0 202 202" fill="none" xmlns="http://www.w3.org/2000/svg">
<path fill-rule="evenodd" clip-rule="evenodd" d="M19.2405 78.5556C20.3291 78.5556 21.4008 78.4658 22.4444 78.2862V123.444H8.41667C7.67259 123.444 6.95898 123.74 6.43284 124.266C5.9067 124.792 5.61111 125.506 5.61111 126.25V131.861C5.61111 132.605 5.9067 133.319 6.43284 133.845C6.95898 134.371 7.67259 134.667 8.41667 134.667H193.583C194.327 134.667 195.041 134.371 195.567 133.845C196.093 133.319 196.389 132.605 196.389 131.861V126.25C196.389 125.506 196.093 124.792 195.567 124.266C195.041 123.74 194.327 123.444 193.583 123.444H179.556V78.2862C180.599 78.4658 181.671 78.5556 182.759 78.5556C193.432 78.5556 202 69.8471 202 59.2028V45.7923C202.001 44.0129 201.691 42.2471 201.085 40.5739L188.853 6.85117C188.128 4.84401 186.801 3.10932 185.054 1.88336C183.307 0.657398 181.224 -0.000245595 179.09 6.8801e-08H22.9046C20.7715 0.00247756 18.691 0.662012 16.9461 1.88888C15.2011 3.11574 13.8765 4.85038 13.1524 6.85678L0.920222 40.5739C0.312454 42.2467 0.00104798 44.0126 0 45.7923V59.2028C0 69.8471 8.56817 78.5556 19.2405 78.5556ZM11.4691 44.4007L23.5049 11.2222H178.489L190.525 44.4007C190.694 44.8496 190.772 45.3153 190.772 45.7923V59.2028C190.786 61.3439 189.949 63.4027 188.445 64.9271C186.942 66.4516 184.895 67.317 182.754 67.3333C178.377 67.3333 174.741 63.7422 174.741 59.2028C174.741 57.7147 174.15 56.2875 173.098 55.2352C172.045 54.1829 170.618 53.5917 169.13 53.5917C167.642 53.5917 166.215 54.1829 165.162 55.2352C164.11 56.2875 163.519 57.7147 163.519 59.2028C163.532 61.3439 162.696 63.4027 161.192 64.9271C159.689 66.4516 157.642 67.317 155.501 67.3333C151.124 67.3333 147.488 63.7422 147.488 59.2084C147.488 57.7203 146.897 56.2931 145.845 55.2408C144.792 54.1885 143.365 53.5973 141.877 53.5973C140.389 53.5973 138.962 54.1885 137.909 55.2408C136.857 56.2931 136.266 57.7203 136.266 59.2084C136.266 63.7422 132.63 67.3333 128.248 67.3333C123.865 67.3333 120.235 63.7422 120.235 59.2028C120.235 57.7147 119.644 56.2875 118.591 55.2352C117.539 54.1829 116.112 53.5917 114.624 53.5917C113.136 53.5917 111.708 54.1829 110.656 55.2352C109.604 56.2875 109.013 57.7147 109.013 59.2028C109.028 61.3433 108.192 63.4022 106.689 64.9268C105.187 66.4514 103.141 67.317 101 67.3333C98.86 67.317 96.8138 66.4524 95.3106 64.9291C93.8073 63.4059 92.9698 61.3485 92.9817 59.2084C92.9817 57.7203 92.3906 56.2931 91.3383 55.2408C90.286 54.1885 88.8588 53.5973 87.3706 53.5973C85.8824 53.5973 84.4552 54.1885 83.403 55.2408C82.3507 56.2931 81.7595 57.7203 81.7595 59.2084C81.7595 63.7422 78.1291 67.3333 73.7468 67.3333C69.3646 67.3333 65.7286 63.7422 65.7286 59.2028C65.7286 57.7147 65.1374 56.2875 64.0851 55.2352C63.0328 54.1829 61.6056 53.5917 60.1175 53.5917C58.6293 53.5917 57.2021 54.1829 56.1498 55.2352C55.0975 56.2875 54.5063 57.7147 54.5063 59.2028C54.5063 63.7366 50.8759 67.3333 46.4937 67.3333C42.1114 67.3333 38.4754 63.7422 38.4754 59.2028C38.4754 57.7147 37.8842 56.2875 36.8319 55.2352C35.7796 54.1829 34.3524 53.5917 32.8643 53.5917C31.3761 53.5917 29.9489 54.1829 28.8966 55.2352C27.8443 56.2875 27.2532 57.7147 27.2532 59.2028C27.2532 63.7366 23.6228 67.3333 19.2405 67.3333C14.8526 67.3333 11.2222 63.7422 11.2222 59.2028V45.7923C11.2221 45.3175 11.3057 44.8465 11.4691 44.4007ZM168.333 73.629C164.818 76.8069 160.245 78.563 155.506 78.5556C152.972 78.5586 150.461 78.0571 148.122 77.0803C145.783 76.1035 143.662 74.6708 141.883 72.8659C140.102 74.6715 137.98 76.1045 135.64 77.0814C133.3 78.0582 130.789 78.5594 128.253 78.5556C125.718 78.5586 123.208 78.0571 120.869 77.0803C118.53 76.1035 116.409 74.6708 114.629 72.8659C112.849 74.6715 110.727 76.1045 108.387 77.0814C106.047 78.0582 103.536 78.5594 101 78.5556C98.4643 78.5594 95.9531 78.0582 93.6131 77.0814C91.2731 76.1045 89.151 74.6715 87.3706 72.8659C85.5909 74.6708 83.4697 76.1035 81.1307 77.0803C78.7917 78.0571 76.2816 78.5586 73.7468 78.5556C68.4107 78.5556 63.5907 76.3728 60.1175 72.8659C58.3377 74.6708 56.2165 76.1035 53.8775 77.0803C51.5385 78.0571 49.0285 78.5586 46.4937 78.5556C41.5559 78.5556 37.067 76.6871 33.6667 73.629V123.444H47.6944C46.9504 123.444 46.2368 123.149 45.7106 122.623C45.1845 122.097 44.8889 121.383 44.8889 120.639V109.417C44.8889 108.673 45.1845 107.959 45.7106 107.433C46.2368 106.907 46.9504 106.611 47.6944 106.611H64.5278C65.2719 106.611 65.9855 106.907 66.5116 107.433C67.0378 107.959 67.3333 108.673 67.3333 109.417V112.222H75.75C76.4941 112.222 77.2077 112.518 77.7338 113.044C78.26 113.57 78.5556 114.284 78.5556 115.028V120.639C78.5556 121.383 78.26 122.097 77.7338 122.623C77.2077 123.149 76.4941 123.444 75.75 123.444H168.333V73.629ZM11.2222 151.5C11.2222 150.012 11.8134 148.585 12.8657 147.532C13.918 146.48 15.3452 145.889 16.8333 145.889H185.167C186.655 145.889 188.082 146.48 189.134 147.532C190.187 148.585 190.778 150.012 190.778 151.5V196.389C190.778 197.877 190.187 199.304 189.134 200.357C188.082 201.409 186.655 202 185.167 202H16.8333C15.3452 202 13.918 201.409 12.8657 200.357C11.8134 199.304 11.2222 197.877 11.2222 196.389V151.5ZM22.4444 190.778V157.111H179.556V190.778H22.4444Z" fill="black"/>
</svg>
