<svg width="202" height="202" viewBox="0 0 202 202" fill="none" xmlns="http://www.w3.org/2000/svg">
<path fill-rule="evenodd" clip-rule="evenodd" d="M94.6875 25.25C96.3617 25.25 97.9673 25.9151 99.1511 27.0989C100.335 28.2827 101 29.8883 101 31.5625V96.7917H109.417V44.1875C109.417 42.5133 110.082 40.9077 111.266 39.7239C112.449 38.5401 114.055 37.875 115.729 37.875C117.403 37.875 119.009 38.5401 120.193 39.7239C121.377 40.9077 122.042 42.5133 122.042 44.1875V109.779C122.042 117.791 132.184 121.267 137.103 114.942L150.511 97.7007C151.511 96.4105 152.967 95.5521 154.58 95.3017C156.193 95.0512 157.841 95.4278 159.185 96.3541C160.529 97.2803 161.468 98.686 161.808 100.282C162.148 101.879 161.865 103.545 161.015 104.939L130.698 154.867C126.64 161.548 120.929 167.071 114.116 170.904C107.303 174.737 99.6177 176.75 91.8006 176.75C66.6684 176.75 46.2917 156.373 46.2917 131.241V69.4375C46.2917 67.7633 46.9567 66.1577 48.1406 64.9739C49.3244 63.7901 50.93 63.125 52.6042 63.125C54.2783 63.125 55.884 63.7901 57.0678 64.9739C58.2516 66.1577 58.9167 67.7633 58.9167 69.4375V105.705H67.3333V44.1875C67.3333 42.5133 67.9984 40.9077 69.1822 39.7239C70.366 38.5401 71.9717 37.875 73.6458 37.875C75.32 37.875 76.9256 38.5401 78.1094 39.7239C79.2933 40.9077 79.9583 42.5133 79.9583 44.1875V96.7917H88.375V31.5625C88.375 29.8883 89.0401 28.2827 90.2239 27.0989C91.4077 25.9151 93.0133 25.25 94.6875 25.25ZM79.9752 30.885C80.156 27.1048 81.7851 23.5392 84.5243 20.9279C87.2636 18.3165 90.903 16.8598 94.6875 16.8598C98.472 16.8598 102.111 18.3165 104.851 20.9279C107.59 23.5392 109.219 27.1048 109.4 30.885C111.645 29.8164 114.124 29.3338 116.607 29.4819C119.089 29.63 121.493 30.4042 123.595 31.7322C125.698 33.0602 127.43 34.8989 128.63 37.0767C129.83 39.2546 130.459 41.7009 130.458 44.1875V109.779L143.87 92.5371C146.19 89.5528 149.563 87.5687 153.298 86.9914C157.034 86.4141 160.848 87.2873 163.961 89.4321C167.073 91.5768 169.247 94.8307 170.037 98.5269C170.828 102.223 170.174 106.081 168.211 109.311L137.894 159.231C133.086 167.149 126.319 173.695 118.246 178.238C110.172 182.781 101.064 185.167 91.8006 185.167C62.0182 185.167 37.875 161.023 37.875 131.241V69.4375C37.8745 66.9524 38.5027 64.5076 39.7013 62.3307C40.8998 60.1537 42.6297 58.3154 44.7298 56.9869C46.8299 55.6583 49.2321 54.8827 51.7126 54.7323C54.1931 54.5819 56.6714 55.0615 58.9167 56.1266V44.1875C58.9162 41.7009 59.5453 39.2546 60.7453 37.0767C61.9454 34.8989 63.6772 33.0602 65.7795 31.7322C67.8818 30.4042 70.2861 29.63 72.7683 29.4819C75.2505 29.3338 77.7298 29.8164 79.9752 30.885Z" fill="black"/>
</svg>
