<svg width="203" height="237" viewBox="0 0 203 237" fill="none" xmlns="http://www.w3.org/2000/svg">
<path d="M146.611 124.143C115.484 124.143 90.2222 149.423 90.2222 180.571C90.2222 211.72 115.484 237 146.611 237C177.738 237 203 211.72 203 180.571C203 149.423 177.738 124.143 146.611 124.143ZM165.219 207.093L140.972 182.829V146.714H152.25V178.201L173.114 199.08L165.219 207.093ZM157.889 22.5714H122.026C117.289 9.48 104.883 0 90.2222 0C75.5611 0 63.1556 9.48 58.4189 22.5714H22.5556C10.15 22.5714 0 32.7286 0 45.1429V214.429C0 226.843 10.15 237 22.5556 237H91.4628C84.7905 230.519 79.3626 222.869 75.4483 214.429H22.5556V45.1429H45.1111V79H135.333V45.1429H157.889V102.474C165.896 103.603 173.452 105.973 180.444 109.246V45.1429C180.444 32.7286 170.294 22.5714 157.889 22.5714ZM90.2222 45.1429C84.0194 45.1429 78.9444 40.0643 78.9444 33.8571C78.9444 27.65 84.0194 22.5714 90.2222 22.5714C96.425 22.5714 101.5 27.65 101.5 33.8571C101.5 40.0643 96.425 45.1429 90.2222 45.1429Z" fill="black"/>
</svg>
